<svg xmlns="http://www.w3.org/2000/svg" fill="none" viewBox="0 0 24 24" id="Opencv--Streamline-Svg-Logos" height="24" width="24">
  <desc>
    Opencv Streamline Icon: https://streamlinehq.com
  </desc>
  <path fill="#ff0101" d="M9.67635 8.5238c-1.73795 -1.0034 -2.585275 -3.049025 -2.065875 -4.98745C8.129875 1.5979 9.8865 0.25 11.8933 0.25c2.006825 0 3.76345 1.3479 4.28285 3.28635 0.5194 1.938425 -0.327925 3.98405 -2.065875 4.98745l-1.335 -2.31225c0.691425 -0.3992 1.0285 -1.213 0.821875 -1.984175 -0.206625 -0.771175 -0.905475 -1.3074 -1.70385 -1.3074 -0.798375 0 -1.4972 0.536225 -1.703825 1.3074 -0.20665 0.771175 0.13045 1.584975 0.82185 1.984175l-1.334975 2.31225Z" stroke-width="0.25"></path>
  <path fill="#0101ff" d="M19.1712 9.59715c1.73795 1.003425 2.585275 3.04905 2.065875 4.987475 -0.5194 1.93845 -2.276025 3.28635 -4.28285 3.28635 -2.006825 0 -3.763425 -1.3479 -4.282825 -3.28635 -0.519425 -1.938425 0.3279 -3.98405 2.065875 -4.987475l1.334975 2.312275c-0.6914 0.3992 -1.0285 1.213 -0.821875 1.984175 0.20665 0.77115 0.905475 1.3074 1.70385 1.3074 0.798375 0 1.4972 -0.53625 1.70385 -1.3074 0.206625 -0.771175 -0.130475 -1.584975 -0.821875 -1.984175l1.335 -2.312275Z" stroke-width="0.25"></path>
  <path fill="#01ff01" d="M11.36185 13.437075c0 2.006825 -1.3479 3.76345 -3.28635 4.28285 -1.938425 0.5194 -3.98405 -0.327925 -4.987475 -2.065875 -1.0034 -1.737975 -0.714395 -3.9332 0.70465 -5.352225 1.419025 -1.41905 3.61425 -1.70805 5.3522 -0.704625l-1.334975 2.31225c-0.691425 -0.399175 -1.56475 -0.2842 -2.129275 0.280325 -0.564525 0.56455 -0.6795 1.437875 -0.280325 2.129275 0.399175 0.6914 1.213 1.0285 1.984175 0.821875 0.77115 -0.20665 1.3074 -0.905475 1.3074 -1.70385h2.669975Z" stroke-width="0.25"></path>
  <path fill="#050505" d="M3.7603 18.93425c0.37525 -0.033725 0.754675 -0.0334 1.12805 0.020075 0.230125 0.040725 0.47425 0.10025 0.6471 0.268 0.1811 0.202125 0.22565 0.48285 0.26545 0.741625 0.06525 0.536975 0.0576 1.081575 0 1.618875 -0.038525 0.262275 -0.0764 0.54555 -0.248275 0.758825 -0.187475 0.19035 -0.4644 0.24445 -0.7184 0.28455 -0.37495 0.0468 -0.755325 0.057625 -1.131875 0.02005 -0.25495 -0.0261 -0.52105 -0.070975 -0.738125 -0.216425 -0.140375 -0.089125 -0.2158 -0.246375 -0.26705 -0.39885 -0.102825 -0.31765 -0.115875 -0.65505 -0.129875 -0.986075 -0.001575 -0.43735 0.0067 -0.87915 0.092 -1.309475 0.04615 -0.20085 0.102175 -0.42175 0.271825 -0.55575 0.23905 -0.173475 0.543025 -0.2155 0.829175 -0.245425Zm0.06205 0.599375c-0.157875 0.023875 -0.354575 0.036925 -0.44975 0.183975 -0.083075 0.2193 -0.0802 0.45865 -0.097075 0.689425 -0.007975 0.411575 -0.02865 0.82695 0.035 1.235325 0.02355 0.137825 0.07195 0.30205 0.22505 0.342475 0.331975 0.10155 0.6872 0.08435 1.029375 0.06495 0.1706 -0.0261 0.396925 -0.04075 0.48 -0.219325 0.09515 -0.271825 0.088475 -0.5653 0.10025 -0.8492 -0.003825 -0.39915 0.018475 -0.80595 -0.077025 -1.1965 -0.022925 -0.138775 -0.166775 -0.197975 -0.2887 -0.222475 -0.314475 -0.06175 -0.63915 -0.054125 -0.957125 -0.02865Zm3.35295 0.64455c0.227925 -0.144825 0.510875 -0.168375 0.7738 -0.1445 0.2454 0.021 0.517875 0.1044 0.649325 0.330375 0.156925 0.2836 0.165825 0.618775 0.17665 0.935175 -0.007 0.3253 -0.01305 0.664925 -0.147375 0.9673 -0.0767 0.18365 -0.25305 0.303975 -0.4418 0.3514 -0.289 0.070975 -0.606675 0.078625 -0.885175 -0.0366 -0.15055 -0.058875 -0.25465 -0.18685 -0.3409 -0.317975v1.486775h-0.6366c0.000325 -1.23055 -0.000625 -2.4614 0.000325 -3.69195 0.205925 -0.00095 0.411875 -0.00095 0.6175 0 -0.007 0.126675 -0.014 0.25305 -0.0175 0.38005 0.076375 -0.093275 0.14735 -0.19575 0.25175 -0.26005Zm0.207225 0.3323c-0.1515 0.011775 -0.3164 0.0869 -0.35935 0.2454 -0.081175 0.279475 -0.06685 0.5755 -0.055075 0.863225 0.019725 0.1875 0.042975 0.429075 0.24255 0.5131 0.214525 0.083075 0.46215 0.078625 0.67925 0.00765 0.1878 -0.0662 0.21515 -0.2871 0.2349 -0.457725 0.019725 -0.28265 0.026725 -0.571025 -0.02865 -0.850175 -0.018775 -0.108225 -0.074475 -0.21995 -0.18015 -0.26545 -0.1668 -0.073525 -0.355225 -0.0697 -0.533475 -0.056025Zm2.15425 -0.327525c0.312875 -0.16075 0.67925 -0.166475 1.022675 -0.15025 0.28585 0.023875 0.632775 0.071625 0.79035 0.34505 0.1776 0.330075 0.14865 0.7184 0.173475 1.080625h-1.741425c0.020375 0.186825 -0.003825 0.388325 0.0904 0.559575 0.080525 0.135275 0.25145 0.16295 0.395975 0.170925 0.17855 0.00125 0.3708 0.0159 0.535375 -0.067175 0.0942 -0.07385 0.09485 -0.204975 0.10695 -0.3132 0.2037 -0.000325 0.407425 -0.000325 0.611125 0 -0.00765 0.212625 -0.035 0.4507 -0.205625 0.6003 -0.256225 0.229825 -0.6229 0.2537 -0.95075 0.26005 -0.289325 -0.008575 -0.5949 -0.023225 -0.854 -0.165825 -0.20975 -0.123825 -0.2766 -0.37815 -0.313525 -0.602225 -0.046775 -0.33295 -0.05855 -0.67225 -0.018775 -1.00645 0.032475 -0.263875 0.10345 -0.574225 0.357775 -0.7114Zm0.372075 0.4052c-0.13305 0.12125 -0.12 0.322425 -0.125725 0.4873 0.374325 0.001925 0.74865 0.00095 1.123275 0.000325 -0.000625 -0.148325 0.0137 -0.310025 -0.066525 -0.442125 -0.078625 -0.10695 -0.225975 -0.11395 -0.34695 -0.127 -0.1951 -0.00285 -0.410275 -0.024175 -0.584075 0.0815Zm2.97005 -0.4068c0.220275 -0.152775 0.504825 -0.1741 0.763925 -0.144175 0.220575 0.023225 0.4542 0.10725 0.584375 0.2976 0.11555 0.157875 0.1477 0.35905 0.1493 0.550325 -0.00095 0.583775 0.000325 1.167225 -0.000325 1.750975 -0.2018 0.000325 -0.403275 0.000325 -0.60445 0 -0.00095 -0.55225 0.00065 -1.104175 -0.00095 -1.6561 -0.00605 -0.12065 -0.001275 -0.26005 -0.092 -0.353 -0.09675 -0.104725 -0.248575 -0.1251 -0.38385 -0.12415 -0.163625 -0.00095 -0.3406 0.027075 -0.466625 0.140075 -0.1232 0.105025 -0.169975 0.27435 -0.170625 0.430975 -0.00095 0.520725 0.000325 1.04145 -0.000625 1.561875 -0.201475 0.00065 -0.402975 0.00065 -0.604125 0.000325 -0.000325 -0.8594 -0.000325 -1.718825 0 -2.578225 0.197975 -0.000625 0.396275 -0.000325 0.59425 0 -0.00095 0.150875 -0.0159 0.3008 -0.020375 0.451675 0.06495 -0.121925 0.13305 -0.2505 0.2521 -0.328175Zm2.5919 -1.129325c0.333575 -0.112025 0.689125 -0.12795 1.037975 -0.140375 0.338025 0.0016 0.69135 0.004775 1.0071 0.141025 0.160425 0.066825 0.2715 0.21325 0.325625 0.37495 0.08815 0.241575 0.0907 0.503225 0.092625 0.75755 -0.232675 0 -0.46535 0.000625 -0.697725 -0.000325 -0.003825 -0.178875 0.009875 -0.3794 -0.1009 -0.53155 -0.112025 -0.1146 -0.2871 -0.114275 -0.43575 -0.131775 -0.302375 -0.005725 -0.617175 -0.02515 -0.906825 0.07925 -0.1044 0.0331 -0.158525 0.1375 -0.179525 0.2381 -0.059525 0.2699 -0.05985 0.548425 -0.059525 0.82375 0.0035 0.36795 -0.002225 0.741325 0.0764 1.103225 0.020675 0.1324 0.1426 0.2139 0.264825 0.243175 0.28265 0.07035 0.5777 0.06015 0.8664 0.042975 0.15055 -0.01975 0.3339 -0.0296 0.428425 -0.16775 0.1009 -0.164875 0.08405 -0.367625 0.078625 -0.552875 0.2349 -0.000975 0.4695 -0.00065 0.7044 0 -0.002875 0.2925 -0.00795 0.594575 -0.114275 0.8715 -0.05475 0.144825 -0.16775 0.267675 -0.31415 0.323075 -0.287425 0.115225 -0.60255 0.122525 -0.907475 0.141 -0.353625 0.00605 -0.711725 -0.00255 -1.0574 -0.084975 -0.20275 -0.05285 -0.424275 -0.1458 -0.518175 -0.347275 -0.12 -0.266425 -0.141975 -0.56275 -0.17285 -0.84955 -0.025775 -0.378775 -0.042325 -0.758175 -0.0331 -1.1376 0.01815 -0.30715 0.04615 -0.63085 0.212 -0.89855 0.088175 -0.14895 0.24285 -0.242225 0.403275 -0.296975Zm2.616725 -0.10725c0.24255 0.0003 0.4851 -0.0067 0.727325 0.0035 0.23585 0.7483 0.49495 1.489 0.73305 2.23635 0.092625 0.2871 0.158175 0.5825 0.254 0.86865 0.10725 -0.30875 0.176 -0.6296 0.28105 -0.939 0.232675 -0.72285 0.471725 -1.443475 0.704075 -2.166325 0.23935 -0.010175 0.47935 -0.001275 0.719025 -0.00445v0.07925c-0.39405 1.20095 -0.778875 2.40505 -1.16495 3.608875 -0.360325 0.0073 -0.721275 0.008275 -1.0816 -0.00065 -0.38385 -1.23085 -0.7862 -2.455975 -1.171975 -3.6862Z" stroke-width="0.25"></path>
</svg>