<?xml version="1.0" encoding="UTF-8"?>
<svg version="1.1" xmlns="http://www.w3.org/2000/svg" width="512" height="512">
<path d="M0 0 C21.78 0 43.56 0 66 0 C72.11354582 47.37998008 72.11354582 47.37998008 72 56 C73.27875 56.20625 74.5575 56.4125 75.875 56.625 C91.6075935 59.83347547 109.24242132 65.81876695 122.296875 75.3359375 C124.75342892 77.2363394 124.75342892 77.2363394 126.94726562 76.75927734 C129.16531517 75.93885226 130.67965139 74.96223837 132.546875 73.515625 C133.21920166 72.9987915 133.89152832 72.48195801 134.58422852 71.94946289 C135.29893311 71.38864014 136.0136377 70.82781738 136.75 70.25 C137.86749634 69.38459595 137.86749634 69.38459595 139.00756836 68.50170898 C144.89823829 63.91842138 150.70930221 59.23699833 156.46972656 54.49121094 C158.30417276 52.98271605 160.15113553 51.49077065 162 50 C162.69335449 49.42362793 163.38670898 48.84725586 164.10107422 48.25341797 C164.79861816 47.69412598 165.49616211 47.13483398 166.21484375 46.55859375 C167.15831665 45.78793579 167.15831665 45.78793579 168.12084961 45.00170898 C170 44 170 44 171.83662415 44.17785645 C174.74655486 45.2837118 176.30256197 46.94310129 178.49316406 49.15258789 C179.37377502 50.03342545 180.25438599 50.914263 181.16168213 51.8217926 C182.11315825 52.78858791 183.06446868 53.75554631 184.015625 54.72265625 C184.99574256 55.70837097 185.97652603 56.69342397 186.95794678 57.67784119 C189.53578484 60.26711849 192.10448579 62.86527882 194.67138672 65.46539307 C197.29369405 68.11842106 199.92454378 70.7629478 202.5546875 73.40820312 C207.71152295 78.59718647 212.85873515 83.79558392 218 89 C216.21547337 92.01065092 214.44902092 94.83553631 212.21484375 97.53125 C211.68914795 98.17046387 211.16345215 98.80967773 210.62182617 99.46826172 C210.06599854 100.13873535 209.5101709 100.80920898 208.9375 101.5 C203.93846969 107.58705045 199.06168088 113.74185965 194.3046875 120.01953125 C191.42484759 123.7437988 188.38746879 127.3247204 185.30078125 130.87890625 C183.76498014 132.86701848 183.76498014 132.86701848 184.30712891 134.921875 C185.18917118 137.56738024 186.52295086 139.90304487 187.88232422 142.32958984 C195.24858535 155.48645758 205 173.60165767 205 189 C205.834104 189.0424585 206.66820801 189.08491699 207.52758789 189.12866211 C218.89632298 189.78959066 230.14153814 191.14238692 241.4375 192.5625 C247.893125 193.366875 254.34875 194.17125 261 195 C261 216.78 261 238.56 261 261 C213.48331415 267.13118527 213.48331415 267.13118527 205 267 C204.690625 268.918125 204.690625 268.918125 204.375 270.875 C201.1433816 286.78623227 194.9556468 303.2602294 185.9375 316.8125 C183.7578551 319.66568183 183.7578551 319.66568183 184.22363281 321.97753906 C185.06280887 324.16361907 186.05147859 325.69735662 187.484375 327.546875 C188.0012085 328.21920166 188.51804199 328.89152832 189.05053711 329.58422852 C189.61135986 330.29893311 190.17218262 331.0136377 190.75 331.75 C191.32693604 332.49499756 191.90387207 333.23999512 192.49829102 334.00756836 C197.08157862 339.89823829 201.76300167 345.70930221 206.50878906 351.46972656 C208.01728395 353.30417276 209.50922935 355.15113553 211 357 C211.57637207 357.69335449 212.15274414 358.38670898 212.74658203 359.10107422 C213.30587402 359.79861816 213.86516602 360.49616211 214.44140625 361.21484375 C214.95517822 361.84382568 215.4689502 362.47280762 215.99829102 363.12084961 C217 365 217 365 216.82214355 366.83662415 C215.7162882 369.74655486 214.05689871 371.30256197 211.84741211 373.49316406 C210.96657455 374.37377502 210.085737 375.25438599 209.1782074 376.16168213 C208.21141209 377.11315825 207.24445369 378.06446868 206.27734375 379.015625 C205.29162903 379.99574256 204.30657603 380.97652603 203.32215881 381.95794678 C200.73288151 384.53578484 198.13472118 387.10448579 195.53460693 389.67138672 C192.88157894 392.29369405 190.2370522 394.92454378 187.59179688 397.5546875 C182.40281353 402.71152295 177.20441608 407.85873515 172 413 C168.98934908 411.21547337 166.16446369 409.44902092 163.46875 407.21484375 C162.5099292 406.42630005 162.5099292 406.42630005 161.53173828 405.62182617 C160.86126465 405.06599854 160.19079102 404.5101709 159.5 403.9375 C153.41294955 398.93846969 147.25814035 394.06168088 140.98046875 389.3046875 C137.2562012 386.42484759 133.6752796 383.38746879 130.12109375 380.30078125 C128.13298152 378.76498014 128.13298152 378.76498014 126.078125 379.30712891 C123.43261976 380.18917118 121.09695513 381.52295086 118.67041016 382.88232422 C105.51354242 390.24858535 87.39834233 400 72 400 C71.9575415 400.834104 71.91508301 401.66820801 71.87133789 402.52758789 C71.21040934 413.89632298 69.85761308 425.14153814 68.4375 436.4375 C67.633125 442.893125 66.82875 449.34875 66 456 C44.22 456 22.44 456 0 456 C-6.11354582 408.62001992 -6.11354582 408.62001992 -6 400 C-7.918125 399.690625 -7.918125 399.690625 -9.875 399.375 C-25.78623227 396.1433816 -42.2602294 389.9556468 -55.8125 380.9375 C-58.64068552 378.80540865 -58.64068552 378.80540865 -60.83203125 379.10546875 C-63.9342479 380.38548247 -66.24394668 382.29509002 -68.875 384.375 C-69.44162354 384.81980713 -70.00824707 385.26461426 -70.59204102 385.72290039 C-71.79259491 386.66643986 -72.9908716 387.61288306 -74.18701172 388.56201172 C-75.94384476 389.95545996 -77.70690898 391.34052819 -79.47265625 392.72265625 C-80.0440332 393.17044434 -80.61541016 393.61823242 -81.20410156 394.07958984 C-82.36050759 394.98549553 -83.51740967 395.89076835 -84.67480469 396.79541016 C-87.76666759 399.2190651 -90.82697795 401.67325538 -93.85546875 404.17578125 C-94.48654541 404.69019775 -95.11762207 405.20461426 -95.76782227 405.73461914 C-96.98126944 406.72474226 -98.18663235 407.72487931 -99.38256836 408.73608398 C-103.45385464 412.03451592 -103.45385464 412.03451592 -105.90423584 411.87965393 C-108.72385783 410.69617555 -110.34019053 409.01894575 -112.49316406 406.84741211 C-113.37377502 405.96657455 -114.25438599 405.085737 -115.16168213 404.1782074 C-116.11315825 403.21141209 -117.06446868 402.24445369 -118.015625 401.27734375 C-118.99574256 400.29162903 -119.97652603 399.30657603 -120.95794678 398.32215881 C-123.53578484 395.73288151 -126.10448579 393.13472118 -128.67138672 390.53460693 C-131.29369405 387.88157894 -133.92454378 385.2370522 -136.5546875 382.59179688 C-141.71152295 377.40281353 -146.85873515 372.20441608 -152 367 C-150.21547337 363.98934908 -148.44902092 361.16446369 -146.21484375 358.46875 C-145.42630005 357.5099292 -145.42630005 357.5099292 -144.62182617 356.53173828 C-144.06599854 355.86126465 -143.5101709 355.19079102 -142.9375 354.5 C-137.93846969 348.41294955 -133.06168088 342.25814035 -128.3046875 335.98046875 C-125.42484759 332.2562012 -122.38746879 328.6752796 -119.30078125 325.12109375 C-117.76498014 323.13298152 -117.76498014 323.13298152 -118.30712891 321.078125 C-119.18917118 318.43261976 -120.52295086 316.09695513 -121.88232422 313.67041016 C-129.24858535 300.51354242 -139 282.39834233 -139 267 C-139.834104 266.9575415 -140.66820801 266.91508301 -141.52758789 266.87133789 C-152.89632298 266.21040934 -164.14153814 264.85761308 -175.4375 263.4375 C-181.893125 262.633125 -188.34875 261.82875 -195 261 C-195 239.22 -195 217.44 -195 195 C-147.48331415 188.86881473 -147.48331415 188.86881473 -139 189 C-138.79375 187.72125 -138.5875 186.4425 -138.375 185.125 C-135.16652453 169.3924065 -129.18123305 151.75757868 -119.6640625 138.703125 C-117.83073574 136.24402276 -117.83073574 136.24402276 -117.9765625 133.9921875 C-119.46685687 131.09123282 -121.35225921 128.68373519 -123.375 126.125 C-124.04221069 125.2750647 -124.04221069 125.2750647 -124.72290039 124.40795898 C-125.66643986 123.20740509 -126.61288306 122.0091284 -127.56201172 120.81298828 C-128.95545996 119.05615524 -130.34052819 117.29309102 -131.72265625 115.52734375 C-132.17044434 114.9559668 -132.61823242 114.38458984 -133.07958984 113.79589844 C-133.98549553 112.63949241 -134.89076835 111.48259033 -135.79541016 110.32519531 C-138.2190651 107.23333241 -140.67325538 104.17302205 -143.17578125 101.14453125 C-143.69019775 100.51345459 -144.20461426 99.88237793 -144.73461914 99.23217773 C-145.72474226 98.01873056 -146.72487931 96.81336765 -147.73608398 95.61743164 C-151.03451592 91.54614536 -151.03451592 91.54614536 -150.87965393 89.09576416 C-149.69617555 86.27614217 -148.01894575 84.65980947 -145.84741211 82.50683594 C-144.96657455 81.62622498 -144.085737 80.74561401 -143.1782074 79.83831787 C-142.21141209 78.88684175 -141.24445369 77.93553132 -140.27734375 76.984375 C-139.29162903 76.00425744 -138.30657603 75.02347397 -137.32215881 74.04205322 C-134.73288151 71.46421516 -132.13472118 68.89551421 -129.53460693 66.32861328 C-126.88157894 63.70630595 -124.2370522 61.07545622 -121.59179688 58.4453125 C-116.40281353 53.28847705 -111.20441608 48.14126485 -106 43 C-103.10517871 44.71918615 -100.33671608 46.406839 -97.72265625 48.53125 C-97.13379639 49.0065918 -96.54493652 49.48193359 -95.93823242 49.97167969 C-95.31924072 50.47602539 -94.70024902 50.98037109 -94.0625 51.5 C-92.72700612 52.57867447 -91.3910579 53.65678664 -90.0546875 54.734375 C-89.38018555 55.27900391 -88.70568359 55.82363281 -88.01074219 56.38476562 C-84.34819967 59.32689546 -80.64948444 62.22300582 -76.94213867 65.10839844 C-74.26586516 67.1960375 -71.63594959 69.3077837 -69.04296875 71.5 C-68.16253906 72.2425 -67.28210938 72.985 -66.375 73.75 C-65.61960938 74.40484375 -64.86421875 75.0596875 -64.0859375 75.734375 C-62.12440261 77.23279564 -62.12440261 77.23279564 -60.08032227 76.69067383 C-57.43270224 75.81165528 -55.09777697 74.47750955 -52.67041016 73.11767578 C-39.51354242 65.75141465 -21.39834233 56 -6 56 C-5.9575415 55.165896 -5.91508301 54.33179199 -5.87133789 53.47241211 C-5.21040934 42.10367702 -3.85761308 30.85846186 -2.4375 19.5625 C-1.633125 13.106875 -0.82875 6.65125 0 0 Z M-36.7734375 156.7890625 C-39.43057254 159.34358456 -39.43057254 159.34358456 -43 164 C6.83 164 56.66 164 108 164 C100.06966945 148.13933891 79.22506098 138.23515556 63.22265625 132.69140625 C26.66520442 122.04019563 -8.79230342 131.54224119 -36.7734375 156.7890625 Z M-42 292 C-34.69267192 306.61465615 -15.73435797 316.4763164 -1 322 C3.92959432 323.63566741 8.92542765 324.89384322 14 326 C14.82757813 326.18304688 15.65515625 326.36609375 16.5078125 326.5546875 C42.58738637 331.21467405 68.62457537 324.21005158 90.375 309.5625 C97.36459607 304.4029502 103.57248139 298.78439826 109 292 C59.17 292 9.34 292 -42 292 Z " fill="#7A8CFF" transform="translate(223,28)"/>
<path d="M0 0 C0 42.24 0 84.48 0 128 C-47.37845578 128.29107747 -47.37845578 128.29107747 -67.5234375 128.40429688 C-81.32912597 128.4819463 -95.13479917 128.56077139 -108.94042969 128.64819336 C-119.00347792 128.7119099 -129.06654199 128.77102154 -139.12964702 128.82505554 C-144.4362828 128.85369848 -149.74288653 128.88433819 -155.04947662 128.92053413 C-160.08915676 128.95483563 -165.1288394 128.98278162 -170.1685791 129.00670624 C-171.97552491 129.01625031 -173.78246233 129.02773372 -175.58937836 129.04183006 C-197.07440368 129.2063733 -218.50824998 128.48844886 -240 128 C-240 85.76 -240 43.52 -240 0 C-192.91262169 -0.29107747 -192.91262169 -0.29107747 -172.88085938 -0.40429688 C-159.15646943 -0.48192566 -145.43209496 -0.56073237 -131.70776367 -0.64819336 C-121.70366978 -0.71194025 -111.69955989 -0.7710481 -101.69540852 -0.82505554 C-96.42059859 -0.85368121 -91.14582117 -0.88430818 -85.87105751 -0.92053413 C-80.86010163 -0.95487385 -75.84914329 -0.98280451 -70.83812714 -1.00670624 C-69.04288912 -1.01623882 -67.24765954 -1.02771494 -65.45245171 -1.04183006 C-43.62170264 -1.21031134 -21.83573785 -0.48523862 0 0 Z " fill="#64E1DC" transform="translate(376,192)"/>
<path d="M0 0 C1.17691406 -0.02835938 2.35382813 -0.05671875 3.56640625 -0.0859375 C11.92962391 -0.1045431 18.96343676 1.20987486 25.36010742 6.94311523 C30.96424093 13.25227492 32.21688851 19.02398965 32.21875 27.140625 C32.23017029 28.52396027 32.23017029 28.52396027 32.24182129 29.9352417 C32.2525958 31.88176782 32.2554862 33.82835163 32.25097656 35.77490234 C32.25000747 38.72723904 32.29159158 41.67694639 32.3359375 44.62890625 C32.4595844 64.09627431 32.4595844 64.09627431 25.34228516 72.07885742 C17.91510214 78.95610758 9.97337341 79.02082077 0.375 79 C-1.39617187 79.04253906 -1.39617187 79.04253906 -3.203125 79.0859375 C-11.5002758 79.10441668 -17.56296664 77.77347159 -23.79394531 72.09228516 C-29.68342165 65.60003409 -30.71682422 59.10417072 -30.71875 50.7265625 C-30.72636353 49.80338226 -30.73397705 48.88020203 -30.74182129 47.92904663 C-30.75258219 45.98430065 -30.75549178 44.03949707 -30.75097656 42.09472656 C-30.75000503 39.14028223 -30.79165598 36.18844461 -30.8359375 33.234375 C-30.84114609 31.33594286 -30.84383267 29.43750178 -30.84375 27.5390625 C-30.86014526 26.66690094 -30.87654053 25.79473938 -30.89343262 24.89614868 C-30.81503379 17.83915082 -28.65092065 12.17248498 -23.80725098 6.94204712 C-16.33149501 0.35504834 -9.5747516 -0.02070217 0 0 Z " fill="#DCF5FE" transform="translate(215.25,216.5)"/>
<path d="M0 0 C0.86890869 -0.0066568 1.73781738 -0.0133136 2.63305664 -0.02017212 C4.46531057 -0.03027132 6.29760108 -0.03498999 8.12988281 -0.03466797 C10.92835012 -0.03904818 13.72524819 -0.07541472 16.5234375 -0.11328125 C18.30728629 -0.11914865 20.09114255 -0.12311856 21.875 -0.125 C22.70845947 -0.13937103 23.54191895 -0.15374207 24.40063477 -0.16854858 C28.39222024 -0.13723299 30.4883727 0.07105837 34 2.14208984 C35.9375 4.3359375 35.9375 4.3359375 36 7.8984375 C34.8048927 11.76496113 34.42309655 12.47986688 30.9375 14.3359375 C28.09638563 14.60189538 25.46628249 14.70599456 22.62890625 14.671875 C20.97851168 14.68438606 19.32812103 14.69742312 17.67773438 14.7109375 C15.08604067 14.7148684 12.49473318 14.71090779 9.90307617 14.69628906 C7.39443695 14.68770681 4.8874041 14.7094167 2.37890625 14.734375 C1.60793106 14.72103119 0.83695587 14.70768738 0.0426178 14.69393921 C-4.02888007 14.74968265 -5.84518889 15.16189067 -9.06445312 17.74023438 C-11.18019866 20.08666315 -11.18019866 20.08666315 -11.47265625 22.46875 C-11.30056641 23.45488281 -11.30056641 23.45488281 -11.125 24.4609375 C-11.03347656 25.12351563 -10.94195312 25.78609375 -10.84765625 26.46875 C-9.76523912 29.04285641 -8.42347853 29.87166823 -6.0625 31.3359375 C-3.62276466 31.77175766 -3.62276466 31.77175766 -0.9921875 31.70703125 C0.47734375 31.73313477 0.47734375 31.73313477 1.9765625 31.75976562 C4.01040338 31.76877631 6.04426459 31.77407336 8.078125 31.77539062 C15.58231416 31.9174412 23.04096016 32.85581797 28.84960938 38.04370117 C30.38854699 39.72574422 31.67276651 41.44092428 32.9375 43.3359375 C33.865625 44.6971875 33.865625 44.6971875 34.8125 46.0859375 C37.16461623 52.88093993 36.83179773 59.18535854 33.8125 65.7109375 C30.11634035 72.26227666 25.19645084 76.088366 17.9375 78.3359375 C14.83532613 78.76299932 11.77299987 78.80392489 8.64453125 78.8046875 C7.77608078 78.81230103 6.90763031 78.81991455 6.01286316 78.82775879 C4.18837344 78.83850876 2.36382243 78.84143379 0.53930664 78.83691406 C-2.25282248 78.83593651 -5.04224764 78.87772136 -7.83398438 78.921875 C-9.61197346 78.9270788 -11.38997205 78.92977025 -13.16796875 78.9296875 C-14.0003154 78.94608276 -14.83266205 78.96247803 -15.69023132 78.97937012 C-21.4522912 78.91044605 -21.4522912 78.91044605 -24.5871582 75.95898438 C-26.24742709 73.00715102 -26.74280867 71.65244229 -26.0625 68.3359375 C-24.55053711 66.21508789 -24.55053711 66.21508789 -22.0625 64.3359375 C-19.1688796 63.9536057 -16.64424772 63.80143576 -13.75390625 63.83203125 C-12.95017075 63.82261002 -12.14643524 63.81318878 -11.31834412 63.80348206 C-8.75363616 63.77484235 -6.1898549 63.7717531 -3.625 63.7734375 C-1.06385092 63.76982584 1.4966237 63.76024338 4.05763245 63.73268127 C5.64912936 63.71594042 7.24084802 63.7129801 8.8323822 63.72569275 C13.37082131 63.68275015 16.33872666 63.17430875 19.9375 60.3359375 C21.06026504 57.70715589 21.14355922 55.17497559 20.9375 52.3359375 C19.26205474 49.06881924 18.45406699 48.5081265 14.9375 47.3359375 C13.19707624 47.24461569 11.45373207 47.2043472 9.7109375 47.1953125 C8.67839844 47.17597656 7.64585937 47.15664063 6.58203125 47.13671875 C4.42596424 47.10323145 2.2696067 47.08466413 0.11328125 47.08203125 C-7.7575193 46.8967212 -13.68851555 45.30865163 -19.61132812 39.92919922 C-24.95672342 34.011083 -26.66863685 27.82937912 -26.40234375 20.04296875 C-25.48153768 12.70827211 -21.63498798 8.46152365 -16.16015625 3.78125 C-10.91905533 0.17006315 -6.16479159 0.01646229 0 0 Z " fill="#DCF5FE" transform="translate(291.0625,216.6640625)"/>
<path d="M0 0 C0.95068359 -0.020625 1.90136719 -0.04125 2.88085938 -0.0625 C11.75196487 -0.11209388 11.75196487 -0.11209388 15.6875 3.25 C18.20933623 7.03275434 17.99341551 10.07730119 17.98828125 14.4609375 C17.99256638 15.26608795 17.9968515 16.0712384 18.00126648 16.90078735 C18.00700761 18.60377055 18.00751163 20.30677827 18.00317383 22.00976562 C18.00002002 24.6085018 18.02345315 27.20609259 18.04882812 29.8046875 C18.05110184 31.46093607 18.05180428 33.11718769 18.05078125 34.7734375 C18.059991 35.54754974 18.06920074 36.32166199 18.07868958 37.11923218 C18.0399381 41.66521548 17.61341107 44.70085953 14.6875 48.25 C10.32859948 51.23338514 5.33653059 50.6180654 0.25 50.625 C-0.69166016 50.64949219 -1.63332031 50.67398438 -2.60351562 50.69921875 C-6.97266071 50.71771901 -9.59056877 50.67787854 -13.41015625 48.4140625 C-16.9344013 44.40496239 -16.50269852 40.10423588 -16.55078125 35.0390625 C-16.558853 34.23391205 -16.56692474 33.4287616 -16.57524109 32.59921265 C-16.589063 30.89624168 -16.59979362 29.19324323 -16.60766602 27.49023438 C-16.62489135 24.89139206 -16.66879387 22.2938183 -16.71289062 19.6953125 C-16.72301714 18.03907183 -16.73153337 16.38282038 -16.73828125 14.7265625 C-16.75578934 13.95245026 -16.77329742 13.17833801 -16.79133606 12.38076782 C-16.77628189 8.62074886 -16.45967072 6.47964602 -14.41088867 3.28271484 C-10.15604607 -0.83896282 -5.63915143 0.03021648 0 0 Z " fill="#64E1DC" transform="translate(215.3125,230.75)"/>
</svg>
